<svg xmlns="http://www.w3.org/2000/svg" xmlns:xlink="http://www.w3.org/1999/xlink" fill="none" version="1.1" width="20" height="20" viewBox="0 0 20 20"><defs><clipPath id="master_svg0_13_00187/158_12175"><rect x="0" y="0" width="20" height="20" rx="0"/></clipPath></defs><g clip-path="url(#master_svg0_13_00187/158_12175)"><g><g><path d="M17.217399999999998,12.7807Q17.3682,12.41406,17.4767,12.0285L17.4777,12.02491Q17.564,11.69558,17.3167,11.46158L16.5594,10.72989L16.1244,10.31725L16.1244,9.797830000000001L16.553,9.37886L17.3142,8.64686Q17.5672,8.41034,17.473100000000002,8.07404Q17.0552,6.56526,16.0461,5.36752Q15.794,5.05935,15.5098,4.77522Q15.2705,4.53015,14.9403,4.62649L13.8912,4.90063L13.3788,5.0324Q13.3107,5.0508500000000005,13.2526,5.01567Q13.0673,4.9020600000000005,12.8896,4.8132Q12.822,4.7805,12.8032,4.710649999999999L12.6678,4.22412L12.40456,3.170954Q12.32297,2.8297499999999998,11.9797,2.7476599999999998Q11.58402,2.650703,11.17948,2.5936837Q10.59672,2.50336909,10.004159999999999,2.5Q9.416360000000001,2.50401054,8.83813,2.5941293Q8.4322,2.652126,8.03173,2.751778Q7.70607,2.838186,7.62047,3.1607089999999998L7.33883,4.17383L7.2032,4.66136Q7.18394,4.7328399999999995,7.11882,4.76435L7.11538,4.76602L6.73888,4.96556L6.73262,4.969469999999999Q6.67493,5.0055,6.60909,4.98848L6.10097,4.85322L5.05744,4.58957Q4.72775,4.49383,4.48704,4.7403200000000005Q4.20486,5.021850000000001,3.95324,5.33446Q3.58692,5.77394,3.288506,6.26624Q2.99781,6.76268,2.788829,7.29526Q2.639658,7.66321,2.5295579,8.04711L2.5283981,8.05115L2.5274026,8.055240000000001Q2.4480539,8.38105,2.6850519999999998,8.618269999999999L3.4465310000000002,9.35405L3.87423,9.768979999999999L3.87423,10.2893L3.446224,10.70453L2.684372,11.43708Q2.4313908,11.67359,2.525531,12.0099Q2.632802,12.39465,2.7855119999999998,12.764Q2.9935869999999998,13.3078,3.2866429999999998,13.8109Q3.58497,14.3051,3.9547499999999998,14.744Q4.20752,15.0575,4.49263,15.3419Q4.73174,15.5868,5.0619700000000005,15.4904L6.1110500000000005,15.2163L6.62484,15.0805Q6.6896,15.0638,6.74728,15.0998Q6.92789,15.2105,7.13724,15.3067Q7.1986,15.3364,7.21742,15.4063L7.35263,15.8923L7.60114,16.9083Q7.68297,17.250500000000002,8.026250000000001,17.3326Q8.42193,17.4296,8.82647,17.4866Q9.409279999999999,17.576900000000002,10.00179,17.5803Q10.58961,17.5763,11.16782,17.4861Q11.56703,17.4299,11.96156,17.3335Q12.31531,17.2624,12.40392,16.9118L12.6819,15.9023L12.8174,15.4152Q12.8367,15.3438,12.9018,15.3123L12.9053,15.3105L12.9088,15.3087Q13.1504,15.1803,13.2671,15.1064Q13.325,15.07,13.3917,15.0877L13.9013,15.2234L14.9513,15.4978Q15.2815,15.5941,15.5226,15.3473Q15.8094,15.0661,16.0638,14.7493Q16.427300000000002,14.3071,16.7188,13.8117Q17.0095,13.316,17.217399999999998,12.7807ZM14.7985,13.9478L14.825,13.9174Q14.839,13.9007,14.8668,13.8684Q14.9133,13.8145,14.9364,13.7846Q15.0817,13.6038,15.2105,13.4159L15.287,13.2993Q15.3048,13.2719,15.3332,13.2328Q15.3776,13.1717,15.4157,13.0976Q15.4419,13.0467,15.4932,12.9504Q15.5699,12.8061,15.6042,12.7354L15.6057,12.7323L15.6073,12.7293Q15.7124,12.5296,15.7961,12.32004L15.7983,12.3146L15.8008,12.30929L15.8031,12.30427Q15.8501,12.20359,15.8601,12.17114Q15.868,12.1454,15.8843,12.10869L15.5486,11.7816L14.7831,11.04908Q14.5641,10.84143,14.61,10.5477Q14.636,10.353850000000001,14.6411,10.1584L14.6411,9.89972Q14.6362,9.70247,14.6104,9.50956Q14.567,9.21482,14.7824,9.00987L15.5456,8.27957L15.857,7.95658L15.8458,7.92479Q15.8052,7.82337,15.7825,7.77465L15.78,7.76934L15.7778,7.7639Q15.694,7.55437,15.5869,7.35072Q15.4447,7.06605,15.2692,6.80003L15.1936,6.68485L15.0992,6.54851L14.9206,6.31734Q14.8768,6.26858,14.8066,6.17762L14.782,6.15028L14.3368,6.26787L13.2833,6.53949Q13.0133,6.60721,12.7867,6.4429300000000005Q12.5418,6.26277,12.27501,6.1169899999999995L12.27211,6.11541L12.2121,6.0801099999999995Q12.02733,5.98537,11.83856,5.908799999999999Q11.56289,5.80337,11.48856,5.520300000000001L11.21005,4.5088799999999996L11.08837,4.07027L11.04423,4.06144L10.86667,4.0401299999999996L10.86435,4.0398Q10.83689,4.03588,10.78377,4.02734Q10.64622,4.00524,10.58586,4.00524L10.57869,4.00524L10.25975,3.98324L9.74619,3.98324L9.43492,4.00471Q9.39979,4.00722,9.32183,4.01859Q9.20274,4.03595,9.13034,4.03797L8.964739999999999,4.06444L8.91661,4.07286L8.796050000000001,4.50465L8.51642,5.5237099999999995Q8.4361,5.797140000000001,8.17257,5.90673Q7.89494,6.02151,7.63489,6.1719L7.56959,6.2118Q7.36475,6.3347,7.21749,6.44054Q6.99732,6.59898,6.73236,6.54092L6.72839,6.54005L5.66796,6.26389L5.20916,6.1427L5.17909,6.17612L5.06906,6.31099Q4.53235,6.97318,4.20914,7.76188L4.20725,7.76648L4.20515,7.77098Q4.1589,7.87011,4.14435,7.91376Q4.1360399999999995,7.93866,4.1284,7.96102L4.4599899999999995,8.301179999999999L5.223129999999999,9.03146Q5.4389400000000006,9.23682,5.39601,9.528459999999999Q5.36552,9.759640000000001,5.36114,9.98881L5.36114,10.05113L5.3611,10.1095Q5.36552,10.34263,5.39558,10.57072Q5.4389400000000006,10.86545,5.2235499999999995,11.07041L4.46064,11.8004L4.1316500000000005,12.12939L4.1420200000000005,12.15969Q4.14997,12.17925,4.1629000000000005,12.20855Q4.18779,12.265,4.2097999999999995,12.32001Q4.27099,12.473,4.32686,12.5895L4.40184,12.7537L4.46389,12.8744Q4.59025,13.1099,4.71845,13.3022L4.79357,13.4167Q4.92884,13.6088,5.06864,13.7871L5.17909,13.9225L5.20916,13.9559L5.66866,13.8345L6.72696,13.5589L6.72948,13.5583Q6.99422,13.4964,7.21615,13.6534L7.2187,13.6552L7.22119,13.6571Q7.38652,13.7817,7.56914,13.8865Q7.86083,14.0605,8.17297,14.192Q8.4361,14.3015,8.51744,14.5785L8.7958,15.5931L8.91661,16.0257L8.96245,16.0338L9.12881,16.0591Q9.45049,16.108,9.61072,16.108L10.00471,16.108Q10.43759,16.1116,10.86626,16.0517L11.04121,16.0232L11.08933,16.014699999999998L11.20995,15.5828L11.48792,14.5734Q11.56289,14.2879,11.83533,14.1837Q12.02956,14.1057,12.2151,14.006L12.27393,13.9749Q12.6183,13.7841,12.9286,13.5419L13.0098,13.4786L14.3563,13.831L14.7985,13.9478ZM13.1439,10.03705L13.144,10.040189999999999L13.1439,10.04334Q13.1245,11.32658,12.20392,12.22073Q11.28435,13.1139,10.002970000000001,13.0969Q8.721599999999999,13.1139,7.80202,12.22073Q6.8814,11.32657,6.86201,10.04334L6.86196,10.040189999999999L6.86201,10.03705Q6.8814,8.75381,7.80202,7.85966Q8.721599999999999,6.96652,10.002970000000001,6.9835Q11.28435,6.96652,12.20392,7.85966Q13.1245,8.75381,13.1439,10.03705ZM8.835930000000001,11.22766Q9.2395,11.64981,9.79475,11.73091L9.79475,11.72812L10.00577,11.73095Q10.71733,11.7405,11.22765,11.24455Q11.73703,10.7495,11.74868,10.03968Q11.7408,9.34752,11.24933,8.859539999999999Q10.75694,8.37064,10.06306,8.368590000000001Q9.36918,8.36654,8.873899999999999,8.85252Q8.378630000000001,9.3385,8.36754,10.0323Q8.35644,10.7261,8.835930000000001,11.22766Z" fill-rule="evenodd" fill="#1D2129" fill-opacity="1"/></g></g></g></svg>